<?xml version="1.0" encoding="UTF-8"?>
<svg version="1.1" viewBox="0 0 2048 2048" width="612" height="612" xmlns="http://www.w3.org/2000/svg">
<path transform="translate(0)" d="m0 0h2048v2048h-2048z" fill="#FDFDFD"/>
<path transform="translate(1180,387)" d="m0 0h57l30 3 26 4 31 7 27 8 32 12 24 11 25 13 26 16 20 14 14 11 13 11 14 12 20 20 7 8 9 10 11 14 15 20 11 17 12 20 15 29 12 28 12 36 7 26 6 31 4 34 1 14v50l-3 31-4 26-6 27-8 29-7 20-11 27-13 27-12 21-14 22-9 12-13 17-12 14-9 10-29 29-11 9-9 8-16 12-17 12-27 16-23 12-19 9-23 9-33 11-24 6-31 6-32 4-13 1h-52l-35-4-24-4-27-6-37-11-28-11-24-11-21-11-20-12-25-17-13-10h-2l-5 5-6 7-8 7-95 95-6 7-5 5 1 6v20l-4 18-6 15-8 12-9 10-12 13-17 16-6 7-8 7-39 39-6 7-8 7-118 118-7 8-7 6-5 5-9 8-13 8-13 5-15 4h-25l-17-4-21-10-11-9-6-5-8-10-8-14-5-13-3-13v-24l3-14 5-14 6-11 8-10 11-12 27-27h2l2-4 9-9 5-4 5-6 4-4h2l2-4 8-8 7-6 4-5 4-4h2l2-4 8-8 6-5 5-6h2l1-3 27-27h2l2-4 10-10 5-4 5-6 16-16h2l2-4 9-8 7-8 30-30 11-9 10-7 16-7 18-4h28l12-11 113-113-2-4-13-18-14-21-13-22-8-15-13-29-10-26-10-33-6-27-5-32-3-33v-45l3-34 4-26 6-28 9-32 11-30 11-24 13-26 14-23 13-19 12-16 11-13 12-14 14-15 17-16 14-12 16-13 19-13 15-10 26-15 22-11 24-10 25-9 23-7 25-6 28-5z" fill="#FDFDFD"/>
<path transform="translate(1180,387)" d="m0 0h57l30 3 26 4 31 7 27 8 32 12 24 11 25 13 26 16 20 14 14 11 13 11 14 12 20 20 7 8 9 10 11 14 15 20 11 17 12 20 15 29 12 28 12 36 7 26 6 31 4 34 1 14v50l-3 31-4 26-6 27-8 29-7 20-11 27-13 27-12 21-14 22-9 12-13 17-12 14-9 10-29 29-11 9-9 8-16 12-17 12-27 16-23 12-19 9-23 9-33 11-24 6-31 6-32 4-13 1h-52l-35-4-24-4-27-6-37-11-28-11-24-11-21-11-20-12-25-17-13-10h-2l-5 5-6 7-8 7-95 95-6 7-5 5 1 6v20l-4 18-6 15-8 12-9 10-12 13-17 16-6 7-8 7-39 39-6 7-8 7-118 118-7 8-7 6-5 5-9 8-13 8-13 5-15 4h-25l-17-4-21-10-11-9-6-5-8-10-8-14-5-13-3-13v-24l3-14 5-14 6-11 8-10 11-12 27-27h2l2-4 9-9 5-4 5-6 4-4h2l2-4 8-8 7-6 4-5 4-4h2l2-4 8-8 6-5 5-6h2l1-3 27-27h2l2-4 10-10 5-4 5-6 16-16h2l2-4 9-8 7-8 30-30 11-9 10-7 16-7 18-4h28l12-11 113-113-2-4-13-18-14-21-13-22-8-15-13-29-10-26-10-33-6-27-5-32-3-33v-45l3-34 4-26 6-28 9-32 11-30 11-24 13-26 14-23 13-19 12-16 11-13 12-14 14-15 17-16 14-12 16-13 19-13 15-10 26-15 22-11 24-10 25-9 23-7 25-6 28-5zm5 79-36 4-25 5-20 5-30 10-26 11-27 14-19 12-17 12-16 13-11 9-17 16-14 15-9 11-8 10-13 18-11 18-9 16-8 16-7 15-10 27-8 29-6 31-3 26-1 13v35l2 24 4 27 6 27 8 27 11 28 14 29 12 20 12 18 9 12 8 10 12 14 24 24 11 9 12 10 17 12 19 12 22 12 22 10 26 10 29 8 23 5 26 4 34 2 33-1 27-3 27-5 28-7 29-10 21-9 25-12 25-15 20-14 14-11 13-11 8-7 21-21 7-8 14-17 14-20 11-18 10-18 11-24 9-24 7-24 6-28 4-30 1-13v-41l-3-30-5-28-8-32-10-28-12-27-12-23-15-24-14-19-11-13-18-20-9-9-8-7-13-11-10-8-18-13-18-11-22-12-21-10-30-11-24-7-29-6-20-3-24-2z" fill="#3A4F63"/>
<path transform="translate(1409,646)" d="m0 0 8 1 4 5 1 3 4 54 1 12v13l-4 5-3 2h-7l-19-9-5-2-2 4-13 20-10 15-29 43-12 19-10 15-11 16-11 12-10 8-15 8-12 4-18 3-19-2-115-21-8-1h-13l-16 6-34 16-37 18-13 6h-3v-30l24-12 23-11 34-16 16-5 4-1h20l57 10 70 13h17l13-4 12-7 6-5 12-16 13-20 48-72 11-17 5-9-16-8-6-4-2-5 1-7 9-7 32-22 15-10z" fill="#3A4F63"/>
<path transform="translate(1385,781)" d="m0 0h1v279l-11 11-14 11-13 10-17 11-5 2v-235l10-16 48-72z" fill="#3A4F63"/>
<path transform="translate(1096,897)" d="m0 0 28 5 32 6 1 1v228l-1 3h-8l-31-6-18-5-3-2z" fill="#3A4F63"/>
<path transform="translate(1268,915)" d="m0 0h3v215l-24 6-16 3-11 1h-9v-222l13 2h19l17-3z" fill="#3A4F63"/>
<path transform="translate(1041,917)" d="m0 0h2v186l-9-6-10-8-16-13-17-14-9-8v-109l39-19z" fill="#3A4F63"/>
</svg>
