<?xml version="1.0" standalone="no"?>
<!DOCTYPE svg PUBLIC "-//W3C//DTD SVG 20010904//EN"
 "http://www.w3.org/TR/2001/REC-SVG-20010904/DTD/svg10.dtd">
<svg version="1.0" xmlns="http://www.w3.org/2000/svg"
 width="960.000000pt" height="816.000000pt" viewBox="0 0 960.000000 816.000000"
 preserveAspectRatio="xMidYMid meet">

<g transform="translate(0.000000,816.000000) scale(0.100000,-0.100000)"
fill="#000000" stroke="none">
<path d="M5130 6464 c-14 -2 -59 -9 -100 -15 -178 -25 -421 -104 -595 -192
-603 -308 -1011 -892 -1094 -1567 -14 -109 -14 -381 -1 -490 41 -325 152 -622
335 -894 l86 -129 -276 -277 -277 -277 -94 -5 c-84 -5 -103 -10 -170 -42 -71
-36 -104 -67 -634 -596 -657 -657 -625 -616 -625 -810 0 -108 2 -119 30 -175
39 -77 106 -145 186 -187 62 -32 68 -33 180 -33 189 0 151 -29 801 620 302
303 562 568 578 590 41 60 62 130 68 226 l4 86 279 279 278 278 53 -38 c255
-183 515 -297 824 -363 121 -25 145 -27 384 -28 301 0 399 14 640 94 447 149
796 414 1060 807 156 231 273 541 315 835 20 139 19 427 -1 570 -42 302 -150
586 -322 844 -263 394 -671 693 -1127 824 -186 53 -259 63 -515 66 -135 2
-256 2 -270 -1z m569 -373 c508 -114 928 -437 1151 -886 121 -244 171 -441
178 -709 3 -112 0 -212 -8 -270 -45 -336 -194 -650 -423 -892 -573 -608 -1486
-729 -2167 -286 -249 162 -440 376 -575 647 -72 145 -112 259 -147 421 -20 96
-23 135 -23 334 1 195 4 239 24 330 96 448 345 815 722 1068 162 108 381 199
586 241 134 28 149 29 383 26 165 -2 224 -7 299 -24z"/>
<path d="M6115 5219 c-71 -50 -138 -96 -147 -102 -10 -7 -18 -24 -18 -39 0
-23 8 -32 51 -53 31 -16 49 -31 46 -39 -10 -26 -370 -562 -395 -589 -39 -41
-119 -77 -171 -77 -26 0 -138 18 -251 39 -381 72 -405 76 -463 62 -29 -6 -139
-52 -244 -103 l-193 -91 0 -68 0 -68 73 33 c39 19 140 66 222 105 104 49 162
71 189 71 21 0 147 -20 280 -45 331 -61 374 -67 438 -55 75 15 154 56 203 107
30 31 391 560 431 631 1 2 25 -8 53 -22 60 -31 82 -32 104 -8 15 17 15 33 3
195 -8 106 -19 183 -26 192 -23 28 -54 15 -185 -76z"/>
<path d="M6018 4511 l-128 -192 0 -530 c0 -528 0 -530 20 -519 29 15 214 156
228 173 9 11 12 167 10 637 l-3 623 -127 -192z"/>
<path d="M4852 3672 l3 -517 87 -22 c47 -12 107 -25 132 -28 l46 -7 0 520 0
520 -117 21 c-65 12 -126 23 -136 25 -16 4 -17 -24 -15 -512z"/>
<path d="M5560 4093 c-40 -9 -89 -12 -127 -9 l-63 5 0 -496 0 -496 58 7 c31 4
91 14 132 24 l75 17 3 483 c1 265 -1 482 -5 481 -5 -1 -37 -8 -73 -16z"/>
<path d="M4473 4035 l-133 -64 0 -240 0 -240 76 -65 c107 -91 184 -150 189
-144 3 3 4 188 3 411 l-3 406 -132 -64z"/>
</g>
</svg>
