<?xml version="1.0" standalone="no"?>
<!DOCTYPE svg PUBLIC "-//W3C//DTD SVG 20010904//EN"
 "http://www.w3.org/TR/2001/REC-SVG-20010904/DTD/svg10.dtd">
<svg version="1.0" xmlns="http://www.w3.org/2000/svg"
 width="869.000000pt" height="835.000000pt" viewBox="0 0 869.000000 835.000000"
 preserveAspectRatio="xMidYMid meet">

<g transform="translate(0.000000,835.000000) scale(0.100000,-0.100000)"
fill="#000000" stroke="none">
<path d="M3740 7846 c-709 -66 -1384 -336 -1940 -777 -131 -103 -391 -359
-513 -502 -316 -372 -555 -812 -697 -1282 -274 -913 -192 -1861 235 -2705 183
-360 398 -653 692 -941 199 -195 330 -302 543 -443 524 -348 1103 -545 1749
-596 629 -48 1311 88 1881 376 375 190 643 384 940 683 301 302 479 543 661
896 203 393 330 810 385 1265 27 214 24 629 -5 844 -114 847 -472 1573 -1062
2152 -289 282 -572 485 -915 657 -384 192 -738 299 -1199 362 -155 22 -573 27
-755 11z m690 -116 c786 -84 1515 -425 2074 -970 197 -192 354 -379 494 -587
590 -881 747 -2009 421 -3019 -171 -530 -448 -989 -833 -1383 -547 -560 -1241
-916 -2006 -1030 -707 -105 -1462 15 -2090 334 -315 161 -572 338 -815 565
-632 588 -1011 1336 -1117 2205 -20 166 -17 635 5 800 127 941 575 1745 1297
2326 556 447 1231 715 1940 769 135 10 495 5 630 -10z"/>
<path d="M5577 6595 c-14 -14 -77 -155 -77 -172 0 -7 -219 -7 -269 0 -7 1 -30
40 -50 87 -35 82 -37 85 -71 88 -25 2 -75 -14 -170 -53 -157 -65 -180 -79
-180 -105 0 -11 16 -58 35 -105 l36 -86 -33 -27 c-33 -27 -100 -97 -135 -140
l-18 -24 -78 31 c-43 17 -93 31 -111 31 -38 0 -25 23 -130 -232 -20 -48 -36
-98 -36 -112 0 -28 10 -35 115 -81 l70 -31 5 -139 c4 -120 3 -139 -11 -142 -9
-3 -49 -19 -90 -36 -70 -31 -74 -34 -77 -67 -2 -25 14 -75 53 -170 67 -162 78
-180 109 -180 13 0 61 16 107 35 77 33 83 35 92 18 12 -22 110 -120 151 -151
l28 -22 -32 -79 c-19 -49 -30 -92 -28 -112 3 -33 5 -35 158 -101 85 -37 168
-67 183 -68 26 0 32 8 72 95 l44 95 135 0 134 0 32 -79 c34 -84 54 -111 86
-111 26 0 304 117 327 138 23 21 22 30 -17 128 l-35 85 94 95 c51 52 98 94
103 94 5 0 42 -13 82 -30 84 -35 101 -36 123 -12 19 21 137 308 137 333 0 22
-37 48 -122 83 l-68 28 0 138 0 138 71 28 c88 36 123 66 113 97 -16 55 -110
273 -129 301 -11 17 -30 32 -41 34 -11 2 -57 -13 -103 -32 l-82 -36 -32 38
c-40 46 -105 109 -134 129 -29 20 -29 25 7 108 30 71 36 110 21 133 -9 14
-310 142 -335 142 -8 0 -21 -7 -29 -15z m-464 -185 c47 -115 46 -114 155 -100
71 9 113 9 183 0 109 -14 110 -13 154 94 16 37 34 70 40 72 15 6 178 -61 183
-75 2 -6 -8 -41 -22 -76 -40 -100 -37 -114 37 -173 35 -27 92 -84 127 -126 73
-88 83 -91 185 -50 35 14 69 24 75 22 12 -4 80 -153 80 -175 0 -7 -37 -30 -83
-51 l-83 -39 1 -203 0 -204 82 -36 c45 -19 84 -38 88 -41 10 -11 -67 -189 -82
-189 -7 0 -39 10 -71 23 -31 13 -70 27 -85 31 -30 7 -24 13 -116 -99 -27 -33
-76 -80 -110 -105 -33 -25 -63 -54 -67 -66 -3 -13 7 -52 27 -97 17 -42 29 -82
26 -89 -7 -17 -163 -82 -180 -75 -7 3 -26 36 -42 73 -15 38 -32 74 -36 79 -5
7 -82 11 -210 10 l-203 0 -36 -85 c-24 -55 -42 -84 -51 -82 -36 7 -171 66
-175 76 -3 7 9 45 26 85 16 41 30 82 30 92 0 10 -29 41 -67 72 -72 58 -110 96
-162 165 -40 51 -59 53 -156 12 -38 -17 -71 -30 -73 -30 -5 0 -70 143 -77 171
-6 24 -1 28 79 63 46 21 87 45 90 53 4 8 1 45 -5 81 -7 41 -8 114 -4 188 l6
120 -90 42 -91 41 21 53 c37 95 58 138 66 138 5 0 40 -13 78 -30 92 -39 108
-38 142 7 53 69 107 124 170 174 35 28 63 59 63 68 0 10 -13 51 -30 91 -16 40
-30 78 -30 84 0 12 152 83 180 85 10 0 25 -25 43 -69z"/>
<path d="M5198 6036 c-140 -50 -237 -131 -302 -255 -85 -163 -87 -333 -5 -498
194 -387 755 -388 950 -1 90 177 77 374 -34 545 -64 99 -188 188 -312 222 -73
20 -222 13 -297 -13z m253 -86 c230 -44 383 -276 335 -508 -29 -139 -110 -244
-234 -303 -57 -28 -81 -33 -164 -37 -84 -4 -107 -2 -161 18 -304 111 -391 492
-162 716 108 105 234 142 386 114z"/>
<path d="M3041 5107 c-6 -8 -12 -76 -13 -171 l-3 -158 -85 -24 c-47 -13 -139
-51 -205 -83 l-120 -59 -111 109 c-64 63 -119 109 -130 109 -26 0 -394 -369
-394 -395 0 -10 49 -68 109 -129 l109 -111 -56 -113 c-30 -63 -68 -155 -82
-205 l-28 -92 -161 -5 c-129 -4 -164 -8 -171 -20 -6 -8 -10 -131 -10 -279 0
-240 2 -265 18 -277 12 -10 58 -13 168 -14 l151 0 33 -102 c18 -57 56 -150 85
-208 l53 -105 -109 -111 c-77 -79 -109 -118 -109 -135 0 -32 357 -389 390
-389 15 0 63 38 140 110 77 72 121 107 126 99 15 -25 280 -136 354 -148 l35
-6 3 -159 c1 -97 7 -165 13 -173 9 -10 70 -13 280 -13 l268 0 16 31 c13 24 16
58 15 147 -2 175 -3 172 20 172 33 0 231 76 310 119 l76 40 109 -109 c81 -82
116 -110 135 -110 34 0 390 357 390 391 0 15 -35 57 -105 129 -58 58 -105 111
-105 117 0 6 22 55 49 110 27 54 64 144 81 201 l33 102 158 0 c146 0 159 1
169 19 6 12 10 120 10 280 0 223 -2 262 -16 275 -13 13 -43 16 -169 16 l-154
0 -22 73 c-27 92 -75 208 -111 270 -15 26 -28 55 -28 65 0 9 48 65 107 124 98
98 106 110 98 132 -13 31 -331 361 -362 375 -13 6 -29 11 -35 11 -6 0 -61 -50
-124 -111 l-114 -111 -32 20 c-86 53 -223 108 -365 148 -10 2 -13 44 -13 162
0 109 -4 162 -12 170 -18 18 -541 17 -557 -1z m467 -243 c2 -105 6 -155 15
-162 6 -5 48 -20 92 -31 112 -31 195 -65 306 -127 54 -30 105 -54 114 -54 10
0 66 47 124 105 l107 105 132 -133 132 -132 -105 -107 c-58 -59 -105 -115
-105 -124 0 -10 20 -51 44 -93 59 -101 93 -184 131 -316 l31 -110 154 -5 155
-5 0 -190 0 -190 -146 -3 c-110 -2 -150 -6 -158 -16 -7 -8 -23 -54 -36 -104
-31 -113 -70 -205 -129 -307 -25 -44 -46 -89 -46 -99 0 -11 44 -64 100 -121
55 -55 100 -105 100 -111 0 -5 -59 -68 -130 -139 l-131 -130 -103 108 c-57 59
-111 107 -120 107 -9 0 -56 -23 -105 -51 -99 -56 -221 -106 -326 -134 -38 -10
-76 -22 -82 -27 -9 -7 -13 -57 -15 -162 l-3 -151 -185 0 -185 0 -5 152 c-3 83
-8 154 -11 158 -4 3 -60 22 -125 41 -108 32 -211 77 -317 138 -82 47 -77 49
-198 -70 l-110 -108 -131 132 -132 131 108 110 c118 120 121 128 77 190 -54
76 -126 248 -155 368 -10 40 -23 77 -30 82 -7 6 -80 12 -162 13 l-149 3 0 190
0 190 151 3 c105 2 155 6 162 15 5 6 19 47 31 90 32 117 75 222 131 320 27 48
50 94 50 103 0 8 -47 63 -105 120 l-106 105 67 75 c38 42 97 102 133 135 l65
59 107 -105 c62 -61 114 -105 126 -105 10 0 41 14 67 30 89 57 184 99 301 135
171 52 155 29 155 211 l0 154 188 -2 187 -3 3 -151z"/>
<path d="M3130 4249 c-349 -91 -589 -397 -593 -759 -5 -372 253 -695 617 -775
113 -25 304 -17 401 18 340 119 545 402 545 752 0 361 -225 658 -574 759 -114
33 -280 35 -396 5z m403 -117 c119 -40 186 -83 271 -172 124 -130 183 -266
193 -444 7 -123 -16 -229 -74 -346 -45 -90 -177 -229 -263 -278 -346 -194
-779 -61 -951 294 -164 339 -22 749 316 914 161 78 341 90 508 32z"/>
<path d="M3453 3548 l-303 -302 -133 132 c-136 134 -159 148 -191 116 -37 -37
-22 -61 137 -221 129 -130 157 -153 182 -153 27 0 73 42 358 328 226 226 327
334 327 349 0 28 -25 53 -53 53 -16 0 -112 -89 -324 -302z"/>
</g>
</svg>
