<?xml version="1.0" standalone="no"?>
<!DOCTYPE svg PUBLIC "-//W3C//DTD SVG 20010904//EN"
 "http://www.w3.org/TR/2001/REC-SVG-20010904/DTD/svg10.dtd">
<svg version="1.0" xmlns="http://www.w3.org/2000/svg"
 width="732.000000pt" height="890.000000pt" viewBox="0 0 732.000000 890.000000"
 preserveAspectRatio="xMidYMid meet">

<g transform="translate(0.000000,890.000000) scale(0.100000,-0.100000)"
fill="#000000" stroke="none">
<path d="M0 8880 c0 -19 8 -20 192 -22 131 -2 193 -7 195 -14 2 -7 -14 -14
-41 -18 -24 -4 -50 -14 -56 -21 -7 -8 -16 -15 -21 -15 -39 0 -199 -161 -199
-201 0 -5 -6 -20 -14 -32 -8 -12 -19 -62 -25 -112 -16 -130 -15 -7939 0 -8056
6 -46 18 -93 25 -104 8 -11 14 -27 14 -37 0 -9 6 -21 13 -25 6 -4 25 -28 42
-52 53 -78 146 -139 243 -160 39 -8 950 -11 3396 -11 3040 0 3344 1 3350 16
12 30 7 8333 -5 8429 -6 49 -17 99 -25 110 -8 10 -14 27 -14 37 0 9 -6 21 -13
25 -7 4 -21 21 -31 37 -49 77 -153 151 -244 173 -78 19 -31 28 158 31 l195 2
-3 -4430 -3 -4430 96 0 95 0 0 4450 0 4450 -3660 0 c-3640 0 -3660 0 -3660
-20z m6688 -483 l22 -33 0 -3961 c0 -2179 -3 -3968 -6 -3977 -6 -15 -290 -16
-3118 -16 l-3112 0 -22 30 -22 29 0 3951 0 3951 22 29 22 30 3095 0 3096 0 23
-33z"/>
<path d="M4882 7944 l-24 -17 7 -201 c4 -110 13 -282 21 -381 8 -99 14 -247
15 -330 1 -82 4 -163 8 -180 l6 -30 102 -3 c56 -1 144 2 195 8 51 6 181 15
288 20 107 5 218 14 245 19 28 6 104 13 170 16 149 8 155 10 155 43 0 62 -55
289 -85 352 -7 14 -23 47 -36 75 -13 27 -39 71 -56 97 -18 26 -33 52 -33 57 0
21 -262 271 -284 271 -3 0 -22 11 -42 25 -21 14 -67 39 -103 56 -175 83 -245
101 -446 115 -66 4 -84 2 -103 -12z m195 -100 c92 -18 212 -52 233 -65 8 -5
22 -12 30 -15 48 -18 151 -74 170 -94 3 -3 24 -18 46 -33 51 -34 139 -126 179
-187 17 -25 33 -47 36 -50 7 -5 54 -97 74 -145 44 -105 73 -238 56 -258 -7 -9
-46 -16 -119 -20 -59 -4 -130 -11 -157 -16 -28 -6 -122 -15 -210 -21 -88 -6
-191 -15 -228 -21 -38 -5 -92 -9 -120 -7 l-52 3 -6 230 c-3 127 -9 241 -13
255 -8 32 -25 418 -18 442 5 22 3 22 99 2z"/>
<path d="M4569 7750 c-9 -5 -43 -16 -75 -24 -75 -19 -141 -43 -168 -61 -11 -8
-26 -15 -32 -15 -14 0 -105 -57 -149 -93 -130 -108 -136 -113 -197 -190 -60
-75 -81 -108 -113 -174 -8 -17 -19 -34 -25 -38 -5 -3 -10 -17 -10 -29 0 -13
-6 -29 -14 -35 -8 -7 -18 -31 -21 -54 -4 -23 -11 -47 -16 -53 -27 -33 -58
-343 -40 -395 6 -18 14 -64 17 -103 4 -39 13 -81 20 -93 8 -12 14 -33 14 -45
0 -13 9 -40 20 -61 11 -20 20 -43 20 -51 0 -8 6 -21 13 -28 6 -8 25 -38 41
-68 16 -30 32 -57 35 -60 3 -3 20 -25 36 -49 28 -42 169 -191 181 -191 6 0 67
-43 74 -52 7 -9 64 -40 202 -109 20 -11 48 -19 60 -19 13 0 29 -5 35 -11 6 -6
46 -18 89 -27 147 -30 466 -14 541 26 12 7 30 12 39 12 26 0 165 71 171 88 3
8 1 17 -4 21 -6 3 -23 30 -39 59 -16 29 -38 68 -49 86 -11 19 -39 66 -62 104
-23 39 -44 80 -48 91 -3 12 -10 21 -15 21 -5 0 -12 10 -16 23 -3 12 -12 29
-19 37 -7 8 -26 39 -41 68 -47 85 -58 105 -86 147 -14 23 -39 64 -54 93 -16
29 -39 69 -51 90 -49 81 -63 124 -72 225 -6 56 -14 116 -20 132 -5 17 -12 66
-16 110 -3 43 -13 106 -20 140 -8 33 -15 82 -15 109 0 26 -6 74 -14 105 -8 31
-17 90 -21 131 -8 80 -29 192 -40 209 -8 13 -25 14 -46 1z"/>
<path d="M1396 6641 c-4 -6 -9 -2330 -6 -2814 0 -16 20 -17 313 -15 l312 3 3
1398 c1 952 -1 1404 -8 1418 -10 18 -24 19 -310 19 -164 0 -301 -4 -304 -9z"/>
<path d="M5036 6611 c-6 -9 4 -25 77 -128 20 -29 37 -57 37 -63 0 -6 7 -13 15
-16 8 -3 17 -16 21 -27 3 -12 22 -41 40 -64 19 -23 34 -44 34 -48 0 -6 39 -65
50 -75 5 -4 23 -31 55 -81 5 -8 24 -37 40 -64 17 -26 38 -55 48 -64 9 -8 17
-19 17 -22 0 -4 21 -38 46 -76 52 -78 76 -94 102 -70 9 8 44 39 76 69 90 81
171 190 226 304 28 57 50 111 50 119 0 9 5 26 11 37 13 25 50 258 43 270 -7
11 -981 10 -988 -1z"/>
<path d="M2527 5803 c-9 -8 -9 -1975 -1 -1997 5 -14 41 -16 294 -16 230 0 290
3 299 14 8 10 10 281 9 1007 l-3 994 -296 3 c-162 1 -298 -1 -302 -5z"/>
<path d="M3642 4622 c-9 -7 -12 -95 -10 -408 l3 -399 303 -5 c166 -3 307 -3
312 -2 6 2 10 151 10 413 l0 409 -302 0 c-167 0 -309 -4 -316 -8z"/>
<path d="M4764 4231 c-6 -7 -5 -408 2 -425 5 -14 41 -16 300 -16 280 0 294 1
304 19 6 12 10 100 10 216 0 160 -3 197 -14 201 -17 6 -596 11 -602 5z"/>
<path d="M1395 2960 c-5 -8 -9 -298 -5 -408 0 -10 403 -12 1998 -10 l1997 3 3
199 c2 138 -1 203 -9 212 -10 12 -322 14 -1995 14 -1322 0 -1985 -3 -1989 -10z"/>
<path d="M1390 1778 c-4 -107 0 -411 5 -418 4 -7 445 -10 1289 -10 1078 0
1285 2 1295 14 8 9 11 75 9 217 l-3 204 -1297 3 c-1035 2 -1298 0 -1298 -10z"/>
<path d="M5 4425 c0 -2206 1 -3106 2 -2002 2 1105 2 2909 0 4010 -1 1101 -2
198 -2 -2008z"/>
</g>
</svg>
