<?xml version="1.0" encoding="UTF-8"?>
<svg version="1.1" viewBox="0 0 1600 1600" width="740" height="740" xmlns="http://www.w3.org/2000/svg">
<path transform="translate(0)" d="m0 0h1600v1600h-1600z" fill="#FEFEFE"/>
<path transform="translate(0)" d="m0 0h1600v1600h-1600zm323 81-17 4-12 5-12 7-12 11-8 9-8 14-5 12-3 15-1 1277 1 14 4 16 8 16 9 13 10 10 15 10 15 6 13 3 9 1h947l20-4 14-6 12-8 10-9 9-11 7-12 5-14 3-13 1-11v-86l-1-1063v-120l-2-18-5-15-7-13-10-13-10-9-11-7-15-7-18-4z" fill="#FEFEFE"/>
<path transform="translate(1228,81)" d="m0 0h50l18 4 19 9 10 8 9 8 10 14 7 15 4 16 1 12v120l1 1063v86l-2 16-4 15-8 16-10 13-8 8-15 10-14 6-20 4h-947l-19-3-16-6-14-9-10-9-7-8-8-13-6-14-3-13-1-14v-47l1-456 1-72h1l1 25 1 12v58l2 29 2 8 6-3h7l3 2 3 11h3l3-11 2-31h1l1 139 1 330 1 16 4 13 7 11 8 7 12 6 6 2 7 1h101l847-1 10-3 11-6 7-6 8-13 3-9 1-6v-1280l-2-9-5-10-8-10-12-8-15-5-232-1v-1l60-1 31-1 26-2 9-1-3-2 9-1-4-4 5-5 4-3-3-3 2-3-2-2 7-1-1-2-5-1 4-3z" fill="#D91DF5"/>
<path transform="translate(523,303)" d="m0 0h6v184l1 10 4 6 5 4 7 2 189 1-1 13-6 25-6 16-8 17-11 18-13 16-13 14-11 9-13 10-15 9-21 10-18 6-24 5-19 2h-19l-24-3-21-5-21-8-16-8-15-9-14-11-12-11-9-9-13-17-11-18-9-19-8-24-4-21-1-10v-34l4-25 6-20 5-13 8-16 9-15 11-14 9-10 10-10 11-9 14-10 18-10 19-8 19-6z" fill="#FEFEFE"/>
<path transform="translate(323,81)" d="m0 0h905v1l-42 1-3 2 1 3-5 2v3 2l3 3-6 3-4 4 5 5-6 1-2 2-13 1-9 1-38 2 166 1v1l-949 1-12 3-10 6-9 8-7 12-3 11-1 13v381l-1 545h-1l-1-119-2 16-3 6h-3l-3-6-1-5-7-1-5 2h-3l-3-10-2-30v-61l-1-13-1 54h-1v-774l3-15 5-12 6-11 7-9 11-11 14-9 8-4 17-5z" fill="#30AFE7"/>
<path transform="translate(1209,739)" d="m0 0h18l11 3 9 4 11 7 10 10 9 16 4 16v14l-4 16-7 13-9 10-8 7-12 6-13 4h-20l-14-4-11-5-9 9h-2v2h-2l-2 4-16 16h-2v2h-2v2h-2v2h-2v2l-6 5-1 2h-2v2h-2v2h-2l-2 4-22 22 1 7v12l-3 14-4 10-8 12-7 7-10 7-15 6-10 2h-12l-14-3-16-8-10-9-7-8-7-14-2-6-33-15-30-14-4 1-10 8-12 6-10 3-8 1h-9l-15-3-16-8h-4l-14 14-7 8-52 52 2 11 1 7v12l-4 16-6 12-9 10-9 8-14 7-11 3h-21l-16-5-11-7-10-9-7-10-5-11-3-12v-18l3-12 8-15 9-10 8-7 15-7 12-3h15l16 4 11 6 4-2 39-39 7-8 27-27-1-10v-20l4-14 7-13 11-12 14-9 15-5 14-1 14 2 12 5 10 6 9 8 7 10 6 13 3 12v16l32 15 17 8h3l8-12 9-10 11-7 11-5 9-2h20l14 4 11 6 5 4 4-2 69-69-3-14v-20l4-14 8-14 9-10 14-9 10-4z" fill="#8F59F1"/>
<path transform="translate(1180,914)" d="m0 0h76l8 4 5 6 2 6v470l-4 8-7 6-3 1h-79l-8-5-4-5-2-9v-460l1-9 5-8z" fill="#D91DF5"/>
<path transform="translate(542,264)" d="m0 0 11 1 8 5 5 8v194h192l8 3 6 7 2 7v13l-3 27-6 25-7 21-9 20-11 19-14 19-11 12-10 11-8 7-14 11-15 10-16 9-17 8-27 9-25 5-17 2h-34l-23-3-22-5-23-8-25-12-16-10-11-8-11-9-13-12-12-13-13-17-13-21-10-21-9-25-5-22-3-24v-29l3-27 6-25 8-22 11-23 10-16 10-14 13-15 14-14 11-9 15-11 15-9 16-8 14-6 21-7 23-5 16-2zm-19 39-25 5-23 8-19 9-19 12-13 11-10 9-10 10-10 13-10 15-8 15-6 15-6 19-4 21-1 8v34l3 22 5 19 8 21 11 21 12 17 11 13 13 13 14 11 15 10 16 8 19 8 18 5 16 3 17 2h19l19-2 24-5 18-6 25-12 15-10 14-11 14-13 7-8 13-17 12-21 9-21 6-21 3-16v-7l-189-1-9-3-6-7-1-2-1-10v-184z" fill="#31AFE7"/>
<path transform="translate(617,190)" d="m0 0h22l24 3 21 5 20 7 18 8 15 8 18 12 14 11 15 14 12 13 13 17 8 13 9 16 10 24 7 24 4 24 2 22-1 11-5 8-6 4-3 1h-216l-8-4-6-8-1-5v-212l3-8 8-7z" fill="#31AFE7"/>
<path transform="translate(833 1e3)" d="m0 0h78l7 4 5 6 2 5v379l-4 9-7 6-3 1h-78l-8-4-6-9-1-8v-350l1-25 3-6 8-7z" fill="#9058F2"/>
<path transform="translate(1228,81)" d="m0 0h50l18 4 19 9 10 8 9 8 10 14 7 15 4 16 1 12v769l-1 97h-1l-3-28v-9l-5 1-1 6-3 2-2-2-3-13-3-6-2-6-3-3-2-9-2-18-1-1-1 6v46l-1 43v13l-1 21-2 93h-1l-1-1008-2-9-5-10-8-10-12-8-15-5-232-1v-1l60-1 31-1 26-2 9-1-3-2 9-1-4-4 5-5 4-3-3-3 2-3-2-2 7-1-1-2-5-1 4-3z" fill="#8F59F1"/>
<path transform="translate(247,860)" d="m0 0h1l1 25 1 12v58l2 29 2 8 6-3h7l3 2 3 11h3l3-11 2-31h1l1 139 1 330 1 16 4 13 7 11 8 7 12 6 6 2 7 1h945v1l-510 1v1l-26 1-18 1h-25l-9 2 6 6-3 11-2 5-5 3 4-1 9-6 9-2 2-4 1-3-2-2 3-2 17-1h11l9 2 7 1v3l10-2 8-2 2 1 13-1-3 4h-2v4l-5 1 2 4 12 3h4v4l-3 2h-4l-1 2 250 1v1h-706l-19-3-16-6-14-9-10-9-7-8-8-13-6-14-3-13-1-14v-47l1-456z" fill="#9058F2"/>
<path transform="translate(1008,1059)" d="m0 0h74l9 4 6 8 1 4v325l-4 8-7 6-3 1h-78l-8-4-6-9-1-7v-296l1-27 4-6 6-5z" fill="#D91DF5"/>
<path transform="translate(661,1150)" d="m0 0h76l8 4 5 6 2 6v233l-3 7-5 6-7 3h-77l-8-4-6-9-1-15 1-223 3-6 7-6z" fill="#9059F2"/>
<path transform="translate(246,158)" d="m0 0h1l1 107 1 28 1 17 1 5 3-1 1-7 4-4 10-6 3-2 3 1v-2h2l4 9 1-108h1l1 184v175l-1 545h-1l-1-119-2 16-3 6h-3l-3-6-1-5-7-1-5 2h-3l-3-10-2-30v-61l-1-13-1 54h-1z" fill="#30B0E6"/>
<path transform="translate(641,228)" d="m0 0 19 3 20 5 16 6 16 8 14 8 16 12 15 14 7 7 11 14 10 15 10 19 7 19 5 18 3 17v4l-168 1-1-1z" fill="#FEFEFE"/>
<path transform="translate(1180,914)" d="m0 0h76l8 4 5 6 2 6v423h-1l-1-235-1-5h-2l-2-7-3 2-4-1-5-22-3-24-2-12-3-3-4-23-2-3-1 2v74l-1 26-1 36-1 194-1 24h-1v-423l-29-1v387h-1l-1-162-1-3-2-1v-6h-3l-2 5-1 2-2-1-1-5-2-5-4-22-2-12-3-7-2-2-2-12-3-14-1 1-1 100-1 21-1 53-1 123-2 4v-460l1-9 5-8z" fill="#9058F2"/>
<path transform="translate(1008,1059)" d="m0 0h74l9 4 6 8 1 4v325l-4 8-6 5v-3l5-5 3-6v-112l-4-9 1-2-8 1-3-14-2-9-3-27-2-12-4-7-2-3-4-16-1 11v58l-1 55-1 35h-1l-1-6-1-70v-174h-29v278h-1l-2-62-3-2-3 9-3 6-2-1-3-9-4-29-3-6-6-9-2-13h-2v65l-1 20-1 39h-1l-1-41-1-244 1-27 4-6 6-5z" fill="#9058F2"/>
<path transform="translate(919,332)" d="m0 0h333l10 3 7 8 2 6-1 9-6 8-7 4-11 1h-196l-138-1-9-6-4-7-1-7 3-8 6-7 4-2z" fill="#8E5AF1"/>
<path transform="translate(913,594)" d="m0 0h344l8 5 5 7 1 10-4 9-8 6-4 1h-341l-8-4-6-7-2-6 1-8 5-8 6-4z" fill="#8F59F1"/>
<path transform="translate(915,463)" d="m0 0h341l8 4 6 9 1 9-4 9-6 5-5 2h-343l-6-3-7-8-2-6 1-8 5-8 7-4z" fill="#8D5BF1"/>
<path transform="translate(317,82)" d="m0 0h158l-4 3-8 2-4 2-2 3 5 2 4 3v3l-6 3-1 5 8 4-1 2h-4v3l-4 1-131 1-6 2-11 4-11 8-6 7-6 12-2 8-2 35-1 128h-1l-1-20-3-9h-2v2l-5 1-9 6-5 4-2 7h-2l-1 3-2-10-1-14-1-32v-110l5-16 8-15 7-9 11-11 14-9 8-4z" fill="#03CDE2"/>
<path transform="translate(767,244)" d="m0 0 4 2 12 11 7 7 9 11 10 13 8 13 9 16 10 24 7 24 4 24 2 22-1 11-5 8-6 4-3 1h-216l-8-4-6-8v-6l2-1 1 8 3 1 3 3 3 1 7-2h8l9-3 9-6h2l-2-4 4-2-2-5 8-4-15-2-4-2v-1l16-1h154l-6-29-8-24-9-19-12-19-9-11-11-12-5-5 1-2 4 1v2h2v2h2v2h2v2l6 1 2 3h4l1-5h2l1-3 8-4 1-6v-3l-6-8-7-8-6-6z" fill="#5890EA"/>
<path transform="translate(1203,952)" d="m0 0h29l1 1-1 423h-29z" fill="#FEFEFE"/>
<path transform="translate(721,473)" d="m0 0h41l6 4 4 5 2 7v13l-3 27-6 25-7 21-9 20-11 19-14 19-11 12-10 11-8 7-14 11-15 10-16 9-17 8-27 9-25 5-17 2h-34l-23-3-22-5-23-8v-3l26 9 20 4 12 2 12 1h23l11-4 4-2-5-5h2v-2l4-1 1-4 4-4-4-2 1-3h4l1-4 4-2-24 3-21-1-1-1-15-1-8-2-15-3-20-7-10-5 3-1 21 8 21 5 24 3h19l19-2 24-5 18-6 25-12 15-10 14-11 13-12 7-8 13-17 12-21 9-21 6-21 4-19 2-4v9l-2 13v1l5-2 2-5 3-2-1 6 5-5h3l1 4-1 2 6-6v3h2l1 2 3-3v4h2l2-9v-9l2-13 1-4-1-8-3-6-6-5-40-3z" fill="#8D5BF1"/>
<path transform="translate(857,1043)" d="m0 0h30v319l-1 15h-28l-1-1-1-93v-236z" fill="#FEFEFE"/>
<path transform="translate(342,974)" d="m0 0h234l10 4 4 5 3 7-1 10-4 6-6 5-3 1-13 1h-216l-13-1-8-5-4-5-2-5v-7l3-7 4-5 6-3z" fill="#8E5AF1"/>
<path transform="translate(338,1105)" d="m0 0h240l8 4 6 8 1 10-3 7-5 6-7 3h-240l-8-4-5-6-2-5v-8l4-8 6-5z" fill="#8F59F1"/>
<path transform="translate(338,844)" d="m0 0h241l6 3 6 7 2 6-1 9-4 6-6 5-10 2-235-1-6-3-7-8-1-4v-7l4-8 6-5z" fill="#8F59F1"/>
<path transform="translate(1043,1097)" d="m0 0h16l1 1v269l-1 10h-18l-11-1v-278z" fill="#FEFEFE"/>
<path transform="translate(529,455)" d="m0 0h1l2 42 4 6 3 2h6l2-2 7-2 4 1 10-3 7-7 1-5 4-2-1-6-10-3-3-3 25-1h167v1l-21 1 24 2 8 7 3 9v8h-2l-1 22-3 9h-2l-1-3-2 3-1-3-3-1-3 4h-2l-1-4 1-2-6 2-2 4-1-2v-3l-3 5-6 5-1-2 1-2 2-13v-5l-1-4h-189l-9-3-7-8-1-2z" fill="#5890EA"/>
<path transform="translate(962,81)" d="m0 0h266v1l-42 1-3 2 1 3-5 2v3 2l3 3-6 3-4 4 5 5-6 1-2 2-13 1-9 1-38 2 166 1v1h-581v-1l242-1v-1l5-1 4-2-7-1 3-2 9-2h8l14-4 6-2 2-5-1-1-2-1v-7l7-2v-1h-11l-6-1v-2l-4 1z" fill="#5890EA"/>
<path transform="translate(246,657)" d="m0 0h1l1 76 1 37 2 9 2-1 2-7 10 1 4 7v2l3 1-1 5 2 2 3-9-2-1 3-11h2l1 6 1-2 1-110h1v437h-1l-1-119-2 16-3 6h-3l-3-6-1-5-7-1-5 2h-3l-3-10-2-30v-61l-1-13-1 54h-1z" fill="#4D99EA"/>
<path transform="translate(384,587)" d="m0 0 4 4 8 12 8 10 9 10 9 9 14 11 15 10 16 8 5 4 14 6 12 4 25 5 13 1 1 1 22 1 26-3-5 5h-3v2l-4 1v2l4 2-4 2-2 6-4 1v4l6 3-3 2-11 3-4 2h-23l-12-1-32-6-26-9-2 1-23-11-16-10-11-8-11-9-13-12-6-6v-2h2v2l4 2 11 11 3 1v-2l11-2 3-8 2-1 1-6 2-1-6-9-2-1v-2h-2l-8-12-10-13-7-11z" fill="#5890EA"/>
<path transform="translate(325,84)" d="m0 0 37 1 7 2 18 2 10 3 4 5 2 2-11 4-10 2-13 2-9 1-4-1-7 3-24 5-13 5-13 8-8 9-3 6-1 9-6 18-2 33-3 17-4 2-5-5-7 1-6-11-1-10-3-13-1-17 1-11 1-7 5-14 7-14 7-9 3-3 3-5 9-7 9-5 17-5z" fill="#01D7E3"/>
<path transform="translate(684,1188)" d="m0 0h30v188l-1 1h-29z" fill="#FEFEFE"/>
<path transform="translate(282,662)" d="m0 0h1v437h-1l-1-119-2 16-3 6h-3l-3-6-1-5-7-1-5 2h-3l-3-10-2-30v-24l1-29 2-4h2v-5h5l-1-6 3-1 3 1 3-14h3l2-4 2 3 5 5 1 13 1 2v-117z" fill="#5890EA"/>
<path transform="translate(962,81)" d="m0 0h86l17 1-3 2-12 4-3 2v2l4 3-3 1-2 4-6 2v4h-2v2l2 1v1l5 1v2h2l1 2 4 2 223 1v1h-581v-1l242-1v-1l5-1 4-2-7-1 3-2 9-2h8l14-4 6-2 2-5-1-1-2-1v-7l7-2v-1h-11l-6-1v-2l-4 1z" fill="#4C9AEA"/>
<path transform="translate(529,455)" d="m0 0h1l2 42 4 6 3 2h6l2-2 7-2 4 1 10-3 7-7 1-5 4-2-1-6-10-3-3-3h104l-3 3-10 1-1 3-6 1v4l6 1v2h-4l1 5h-2v2h-2l2 4-1 2 3 2h-4l3 4 7 1 62 1v1h-175l-9-3-7-8-1-2z" fill="#4B9AEA"/>
<path transform="translate(656,397)" d="m0 0h154v1l-69 1v1l-9 1-5 2h-2v2l-4 1 1 2h-2v2l-4 2-2 4 2 1-2 3h2l-1 4-6 3-1 1 5 1-1 2h-3v2l124 1v1h-215l-8-4-6-8v-6l2-1 1 8 3 1 3 3 3 1 7-2h8l9-3 9-6h2l-2-4 4-2-2-5 8-4-15-2-4-2v-1z" fill="#4C9AEA"/>
<path transform="translate(338,844)" d="m0 0h78v1l-6 1 2 2 7 1 1 5-2 3 6 1-1 3-10 4-1 1 5 2-4 2-6 2 3 2-24 3-12 1-5 2v1h-32l-6-3-7-8-1-4v-7l4-8 6-5z" fill="#5890EA"/>
<path transform="translate(384,587)" d="m0 0 4 4 8 12 8 10 9 10 9 9 14 11 15 10 16 8 5 4 9 4v1h-15l-6 1 4 4 1 7-3 1-2 4h-2l1 6 4 4-4 1-21-10-17-11-11-8-10-8-2-3h2v-2l11-2 3-8 2-1 1-6 2-1-6-9-2-1v-2h-2l-8-12-10-13-7-11z" fill="#4D99EB"/>
<path transform="translate(693,1012)" d="m0 0h11l9 4 5 4 4 6 2 6v10l-4 10-9 8-10 3-9-1-10-5-6-8-2-5v-14l4-8 8-7z" fill="#FEFEFE"/>
<path transform="translate(767,244)" d="m0 0 4 2 12 11 5 6 2 4 11 13 10 15 8 14 1 4h-3l-4 10-7 1 1 3-3 3h-3l1 6-1 5-1 4-3-3-8-16-11-18-10-13-4-2-7-8-7-7 1-2 4 1v2h2v2h2v2h2v2l6 1 2 3h4l1-5h2l1-3 8-4 1-6v-3l-6-8-7-8-6-6z" fill="#4D99EB"/>
<path transform="translate(871,862)" d="m0 0 11 2 8 6 4 5 3 8v10l-4 9-5 6-8 4-3 1h-9l-9-3-8-7-4-9v-13l4-8 4-5 9-5z" fill="#FEFEFE"/>
<path transform="translate(1212,777)" d="m0 0h11l8 3 6 5 5 9 1 4v8l-3 9-6 7-10 5h-12l-10-5-7-8-2-5v-14l4-8 8-7z" fill="#FEFEFE"/>
<path transform="translate(1039,921)" d="m0 0h12l8 4 5 5 5 8 1 11-3 9-8 9-7 3-10 1-10-3-7-6-4-7-1-4v-11l4-9 9-8z" fill="#FEFEFE"/>
<path transform="translate(913,336)" d="m0 0 5 1 9 2 2 2 3 1v2l4 2-3 2-10 2-1 1 10 2-4 5-3 1-4 4h-3l-1 3-5 1-6-4v-2h-2l-3-5v-10l4-6z" fill="#5891EA"/>
<path transform="translate(787,263)" d="m0 0 3 1 9 11 10 13 8 13 9 16 10 24 7 24 4 24 2 22-1 11-5 8-6 4-4 1-127-1v-1l103-1 7-1h16l2 1v-2l7-3 3-4 1-4v-17l-3-26-7-27-7-19-7-15-8-15-10-16-9-11-7-8z" fill="#7D6AEF"/>
<path transform="translate(1261,942)" d="m0 0v3l-3 5h-2v3l-2 1-2 5-3 8-5 1 2 7-5 2 2 10 1 9v2l4 3-2 3v3l2 2-2 3h-2l-1 3-2-2-3-17v-15l-2-8-1-3 2-5-2-1 2-5 3-6 6-5 10-4z" fill="#D91DF5"/>
<path transform="translate(824,1367)" d="m0 0 3 1v3l1 3-1 5 1 4-1 9 2 4 6 5-2 1-2 4h-5v2h2v2l7 2 8 1v1h-13l-7-5-2-6v-22z" fill="#D71EF5"/>
<path transform="translate(295,89)" d="m0 0 2 1-5 4-14 9-3 3-3 5-6 7-7 12-6 15-2 6-2 1-2 4 1-9 4-12 8-15 7-9 11-11 14-9z" fill="#0FC5E3"/>
<path transform="translate(845,423)" d="m0 0 1 3-5 5-4 3-4 1-127-1v-1l103-1 7-1h16l2 1v-2l7-3z" fill="#8D5BF1"/>
<path transform="translate(461,698)" d="m0 0 27 9 20 4 12 2 22 2v2h-12l-23-3-22-5-23-8z" fill="#7A6DEF"/>
<path transform="translate(380,642)" d="m0 0h2v2l4 2 12 12 8 7 13 10 18 11 22 11-4 1-20-10-24-16-13-11-12-11-6-6z" fill="#786FEF"/>
<path transform="translate(721,473)" d="m0 0h41l6 4 4 5 2 7v12h-1l-1-8-4-10-7-6-40-3z" fill="#8265F0"/>
<path transform="translate(767,294)" d="m0 0 5 5 7 9 13 21 8 17 6 18 1 8h-2l-6-20-7-17-8-15-10-15-7-9z" fill="#7770EE"/>
<path transform="translate(1072,1123)" d="m0 0 1 4-1 5 1 3h-2v6l-2 2-1 5-3-4-1-5v-13l2-2z" fill="#DA1DF6"/>
<path transform="translate(1091,1105)" d="m0 0 3 4-2 10-5 3h-5v2h-8l4-5 7-1-2-4 3-5z" fill="#D81DF5"/>
<path transform="translate(603,304)" d="m0 0h1l1 56v29l1 10v11l-2 3-1-2z" fill="#5593EA"/>
<path transform="translate(1318,1076)" d="m0 0 3 4-2 89h-1z" fill="#9059F2"/>
<path transform="translate(1068,1160)" d="m0 0h2l2 3 4-1 1 2-1 4 1 2h-3v7l-4 5-3-9-1-10z" fill="#D71FF5"/>
<path transform="translate(841,369)" d="m0 0 3 1 3 19 2 22-1 11-2 2-1-5v-17l-3-26z" fill="#7770EE"/>
<path transform="translate(468,663)" d="m0 0 5 1 19 7 21 5 14 2 1 2-7 1-8-2-15-3-20-7-10-5z" fill="#796EEF"/>
<path transform="translate(295,89)" d="m0 0 2 1-5 4-14 9-3 3-3 5-6 7-5 5-3 2 2-5 7-9 11-11 14-9z" fill="#1EBCE4"/>
<path transform="translate(335,845)" d="m0 0h7l-3 2-8 4-5 7v10l3 5 5 4 8 2v1h-8l-8-7-3-7v-7l4-8 6-5z" fill="#7F68EF"/>
<path transform="translate(461,698)" d="m0 0 27 9 7 2v2l-16-4-17-6z" fill="#7472EE"/>
<path transform="translate(384,587)" d="m0 0 4 4 8 12 8 10-2 2-9-11-9-14z" fill="#4B9BEA"/>
<path transform="translate(1318,1076)" d="m0 0 3 4-1 27-2 1z" fill="#AD40F3"/>
<path transform="translate(1262,930)" d="m0 0 3 1v8l-2 2h-5l1-3-1-5z" fill="#DA1DF6"/>
<path transform="translate(787,263)" d="m0 0 3 1 9 11 9 12h-3l-10-13-8-9z" fill="#786FEF"/>
<path transform="translate(736,510)" d="m0 0h1v9l-2 13-3 3-1-2 4-19z" fill="#7E69EF"/>
<path transform="translate(836,350)" d="m0 0h3l4 15v4l-3-1-4-15z" fill="#796EEF"/>
<path transform="translate(518,713)" d="m0 0 24 2v2h-12l-10-1-2-1z" fill="#7473EE"/>
<path transform="translate(847,399)" d="m0 0h1l1 18-2 7-2-1z" fill="#6E78ED"/>
<path transform="translate(799,349)" d="m0 0h2l5 15 1 8h-2l-6-20z" fill="#7473EE"/>
<path transform="translate(380,642)" d="m0 0h2v2l4 2 7 7 1 4-7-6-7-7z" fill="#5D88EC"/>
<path transform="translate(844,388)" d="m0 0 3 1v21h-1z" fill="#8067F0"/>
<path transform="translate(394,656)" d="m0 0 4 2 8 7 6 5-1 2-13-11-4-3z" fill="#7770EE"/>
<path transform="translate(806,288)" d="m0 0h3l8 13h-3l-6-9z" fill="#7A6CEF"/>
<path transform="translate(325,869)" d="m0 0 7 6 5 3 5 1v1h-8l-8-7z" fill="#885FF1"/>
<path transform="translate(513,677)" d="m0 0 14 1 1 2-7 1-8-2z" fill="#796EEF"/>
<path transform="translate(742,1500)" d="m0 0h3v3l-9 2v-3z" fill="#DA1DF6"/>
<path transform="translate(798,276)" d="m0 0 3 1 7 10h-3l-7-9z" fill="#7670EE"/>
</svg>
